# xmcd
# 
# Track frame offsets:
#     150
#     9527
#     18695
#     30652
#     43302
#     55487
#     67580
#     80022
#     92242
#     106060
#     118217
#     129300
#     142845
#     156312
#     168045
#     180455
#     192335
#     202267
#     217210
#     228415
# 
# Disc length: 3209
# 
# Revision: 0
# Processed by: cddbd v1.5.2PL0 Copyright (c) Steve Scherf et al.
# Submitted via: BonkEnc v1.0.8
# 
DISCID=1b0c8714
DTITLE=Gladys Knight and The Pips - Every beat of my heart
DYEAR=0
DGENRE=
TTITLE0=Every beat of my heart
TTITLE1=If ever i should fall in love
TTITLE2=Either way i lose
TTITLE3=It hurts so bad
TTITLE4=Letter full of tears
TTITLE5=Why don't you love me
TTITLE6=Maybe baby
TTITLE7=Who knows
TTITLE8=Giving up
TTITLE9=Go away, stay away
TTITLE10=What will become of me
TTITLE11=Queen of tears
TTITLE12=Stop and get a hold of myself
TTITLE13=Tell het you're mine
TTITLE14=Another love
TTITLE15=Lovers always forgive
TTITLE16=Operator
TTITLE17=Guess who
TTITLE18=How do you say goodbye
TTITLE19=Come see about me
EXTD=
EXTT0=
EXTT1=
EXTT2=
EXTT3=
EXTT4=
EXTT5=
EXTT6=
EXTT7=
EXTT8=
EXTT9=
EXTT10=
EXTT11=
EXTT12=
EXTT13=
EXTT14=
EXTT15=
EXTT16=
EXTT17=
EXTT18=
EXTT19=
PLAYORDER=
